<?xml version="1.0" encoding="UTF-8" standalone="no"?>
<!-- Created with Inkscape (http://www.inkscape.org/) -->

<svg
   width="100%"
   height="100%"
   viewBox="0 0 47.924 13.481"
   version="1.1"
   id="svg1254"
   inkscape:version="1.2.1 (9c6d41e410, 2022-07-14)"
   sodipodi:docname="logo2.svg"
   xmlns:inkscape="http://www.inkscape.org/namespaces/inkscape"
   xmlns:sodipodi="http://sodipodi.sourceforge.net/DTD/sodipodi-0.dtd"
   xmlns="http://www.w3.org/2000/svg"
   xmlns:svg="http://www.w3.org/2000/svg">
  <sodipodi:namedview
     id="namedview1822"
     pagecolor="#ffffff"
     bordercolor="#000000"
     borderopacity="0.25"
     inkscape:showpageshadow="2"
     inkscape:pageopacity="0.0"
     inkscape:pagecheckerboard="0"
     inkscape:deskcolor="#d1d1d1"
     showgrid="false"
     inkscape:zoom="22.627417"
     inkscape:cx="26.781669"
     inkscape:cy="13.081475"
     inkscape:window-width="2560"
     inkscape:window-height="1369"
     inkscape:window-x="2552"
     inkscape:window-y="-8"
     inkscape:window-maximized="1"
     inkscape:current-layer="svg1254"
     showguides="true">
    <inkscape:grid
       type="xygrid"
       id="grid1941" />
  </sodipodi:namedview>
  <defs
     id="defs1251" />
  <g
     inkscape:label="Layer 1"
     inkscape:groupmode="layer"
     id="layer1">
    <path
       d="m 45.63692,10.461299 c 1.316147,0 2.224691,-0.9396598 2.271364,-2.3460365 0,-0.090233 -0.05912,-0.1493498 -0.14935,-0.1493498 h -0.55384 c -0.09023,0 -0.14935,0.046675 -0.14935,0.1493498 -0.028,0.9116561 -0.581841,1.5246125 -1.418824,1.5246125 -0.8961,0 -1.434382,-0.6285135 -1.434382,-1.5246125 V 7.2036053 h 1.434382 c 1.375264,0 2.286921,-0.9396585 2.286921,-2.1811295 C 47.923841,3.706331 47.012184,2.72 45.63692,2.72 44.230542,2.72 43.35,3.706331 43.35,5.0815937 v 3.0336688 c 0,1.4063767 0.911656,2.3460365 2.28692,2.3460365 z M 44.202538,6.3821813 V 5.0815937 c 0,-0.9241016 0.507168,-1.5370591 1.434382,-1.5370591 0.896099,0 1.434382,0.6129575 1.434382,1.4779412 0,0.7934215 -0.538283,1.3597055 -1.434382,1.3597055 z"
       id="path1054"
       inkscape:label="path_e2"
       style="fill:#000 ;fill-opacity:1;stroke-width:0.311145" />
    <path
       d="m 42.14635,10.460711 h 0.553839 c 0.09023,0 0.14935,-0.05912 0.14935,-0.14935 V 0.14934982 C 42.849539,0.05911666 42.790422,0 42.700189,0 H 42.14635 C 42.05612,0 41.997,0.05911666 41.997,0.14934982 V 10.311361 c 0,0.09023 0.05912,0.14935 0.14935,0.14935 z"
       id="path1048"
       inkscape:label="path_l"
       style="fill:#000;fill-opacity:1;stroke-width:0.311145" />
    <path
       d="M 39.758528,6.2758042 41.476052,3.1674616 C 41.535169,3.0647865 41.460494,2.990108 41.357816,2.990108 h -0.628513 c -0.07467,0 -0.133793,0.028 -0.180466,0.1026752 l -1.673963,3.08034 H 37.860539 V 0.14934982 C 37.860539,0.05911666 37.801422,0 37.711189,0 H 37.15735 C 37.06712,0 37.008,0.05911666 37.008,0.14934982 V 10.311361 c 0,0.09023 0.05912,0.14935 0.14935,0.14935 h 0.553839 c 0.09023,0 0.14935,-0.05912 0.14935,-0.14935 V 6.9945508 h 1.166797 c 0.880542,0 1.493499,0.5538385 1.493499,1.4188233 v 1.8979869 c 0,0.09023 0.05912,0.14935 0.14935,0.14935 h 0.550727 c 0.09023,0 0.152461,-0.05912 0.152461,-0.14935 V 8.4133741 c 0,-1.0610058 -0.659629,-1.8668728 -1.614845,-2.1375699 z"
       id="path1042"
       inkscape:label="path_k"
       style="fill:#000;fill-opacity:1;stroke-width:0.311145" />
    <path
       d="m 29.837148,4.2930223 c -1.010144,1.2071722 -1.277617,3.0231226 -0.340987,4.3608007 0.438547,0.6264673 0.983238,1.1472159 1.710338,1.425811 0.430922,0.165145 0.90019,0.269168 1.362044,0.251689 0.137178,-0.0051 0.273616,-0.01959 0.409417,-0.03835 0.276795,-0.03824 0.550623,-0.09576 0.827099,-0.136332 0.227959,-0.03347 0.478059,-0.08294 0.70994,-0.05561 0.02913,0.0035 0.08389,0.0016 0.103392,0.02881 0.0016,0.0022 0.35656,0.495115 0.35656,0.495115 -0.05868,0.06621 -0.09523,0.126267 -0.09523,0.174042 -2.12e-4,0.300946 0.298722,0.501046 0.494162,0.69013 0.404015,0.390668 0.785256,0.75369 1.01131,1.262893 0.257091,0.57848 0.395435,0.716188 0.85464,0.728582 0.351157,0.0096 0.628162,-0.230608 0.731973,-0.554224 0.130824,-0.407085 -0.110378,-0.674664 -0.400202,-0.909404 -0.356983,-0.289082 -0.562169,-0.535474 -0.75263,-0.949764 -0.06388,-0.138873 -0.590451,-1.3211537 -0.851673,-1.1680855 0,0 -0.04905,0.028918 -0.124256,0.075322 L 34.992218,9.317897 c 0,0 -3.675122,1.350072 -4.912804,-1.6500639 0,0 -1.312467,-3.3002347 3.037744,-4.5377027 -0.320649,-0.05286 -0.831019,0.025531 -0.917669,0.037185 -0.87233,0.1170456 -1.794023,0.4464925 -2.362335,1.1257132 z"
       id="path1026"
       style="display:inline;overflow:visible;fill:#0c6;fill-opacity:1;stroke-width:0.10593"
       inkscape:label="path_sickle" />
    <path
       d="m 28.036954,2.019795 c 0.326703,0 0.581842,-0.2706961 0.581842,-0.5849528 C 28.618796,1.0925818 28.363657,0.853 28.036954,0.853 27.691582,0.853 27.452,1.0925818 27.452,1.4348422 c 0,0.3298137 0.239582,0.5849528 0.584954,0.5849528 z m -0.270697,8.441377 h 0.553839 c 0.09023,0 0.14935,-0.05912 0.14935,-0.14935 V 3.1399186 c 0,-0.090233 -0.05912,-0.1493499 -0.14935,-0.1493499 h -0.553839 c -0.09023,0 -0.14935,0.059117 -0.14935,0.1493499 v 7.1719034 c 0,0.09023 0.05912,0.14935 0.14935,0.14935 z"
       id="path1012"
       style="fill:#000;fill-opacity:1;stroke-width:0.311145"
       inkscape:label="path_i" />
    <path
       d="m 24.955709,10.461303 c 1.328592,0 2.196689,-0.9272139 2.196689,-2.0162233 0,-2.5700611 -3.662184,-2.0037771 -3.662184,-3.7368572 0,-0.7031882 0.538282,-1.1947984 1.344149,-1.1947984 0.868096,0 1.316146,0.5818422 1.362818,1.3752636 0,0.102675 0.05912,0.1493498 0.14935,0.1493498 h 0.550727 c 0.09023,0 0.14935,-0.062233 0.14935,-0.1493498 C 26.987488,3.5569849 26.256299,2.692 24.790802,2.692 c -1.300588,0 -2.150016,0.9241026 -2.150016,2.0162225 0,2.4953875 3.659073,1.9291023 3.659073,3.7368572 0,0.7000778 -0.44805,1.1947985 -1.34415,1.1947985 -0.986331,0 -1.493499,-0.5071673 -1.54017,-1.5246122 0,-0.1057915 -0.05912,-0.1493498 -0.14935,-0.1493498 H 22.71546 c -0.09023,0 -0.15246,0.059117 -0.15246,0.1493498 0.06223,1.4188231 0.958328,2.346037 2.392709,2.346037 z"
       id="path1006"
       style="fill:#000;fill-opacity:1;stroke-width:0.311145"
       inkscape:label="path_s" />
    <path
       d="m 17.76035,10.460953 h 0.553839 c 0.09023,0 0.14935,-0.05912 0.14935,-0.14935 V 5.1870376 c 0,-0.9116571 0.522724,-1.5401706 1.375264,-1.5401706 0.849427,0 1.375264,0.6285135 1.375264,1.5401706 v 5.1245654 c 0,0.09023 0.05912,0.14935 0.14935,0.14935 h 0.550727 c 0.09023,0 0.14935,-0.05912 0.14935,-0.14935 V 5.1870376 C 22.063494,3.8397776 21.167394,2.841 19.838803,2.841 18.507099,2.841 17.611,3.8397776 17.611,5.1870376 v 5.1245654 c 0,0.09023 0.05912,0.14935 0.14935,0.14935 z"
       id="path1000"
       style="fill:#000;fill-opacity:1;stroke-width:0.311145"
       inkscape:label="path_n" />
    <path
       d="m 14.823999,10.461299 c 1.316192,0 2.224769,-0.93966 2.271443,-2.3460366 0,-0.090233 -0.05912,-0.1493498 -0.149355,-0.1493498 h -0.553859 c -0.09023,0 -0.149355,0.046675 -0.149355,0.1493498 -0.028,0.911656 -0.581862,1.5246124 -1.418874,1.5246124 -0.896131,0 -1.434431,-0.6285135 -1.434431,-1.5246124 V 7.2036052 h 1.434431 c 1.375312,0 2.287001,-0.9396585 2.287001,-2.1811295 C 17.111,3.706331 16.199311,2.72 14.823999,2.72 13.417573,2.72 12.537,3.706331 12.537,5.0815936 v 3.0336688 c 0,1.4063766 0.911688,2.3460366 2.286999,2.3460366 z M 13.389568,6.3821812 V 5.0815936 c 0,-0.9241015 0.507185,-1.537059 1.434431,-1.537059 0.896131,0 1.434432,0.6129575 1.434432,1.4779411 0,0.7934215 -0.538301,1.3597055 -1.434432,1.3597055 z"
       id="path994"
       style="fill:#000;fill-opacity:1;stroke-width:0.31115"
       inkscape:label="path_e1" />
    <path
       d="m 9.23435,10.461274 h 0.553839 c 0.09023,0 0.14935,-0.05912 0.14935,-0.14935 V 5.2464755 c 0,-0.927213 0.612956,-1.4810516 1.493499,-1.4810516 h 0.656517 c 0.09023,0 0.14935,-0.059117 0.14935,-0.1493498 V 3.0933498 C 12.236905,3.0062328 12.177785,2.944 12.087555,2.944 H 11.431038 C 10.086889,2.944 9.085,3.871213 9.085,5.2464755 v 5.0654485 c 0,0.09023 0.05912,0.14935 0.14935,0.14935 z"
       id="path988"
       style="fill:#000;fill-opacity:1;stroke-width:0.311145"
       inkscape:label="path_r" />
    <path
       id="path390-1-8"
       style="display:inline;overflow:visible;fill:#000000;fill-opacity:1;stroke-width:0.0907445"
       d="m 8.1028828,9.4088521 c 0.035061,0 0.070128,-0.01879 0.08766,-0.04697 0.07889,-0.1315196 0.1577814,-0.2724311 0.2103759,-0.4227392 0,0 0,0 0,0 C 8.5236394,8.6385271 8.585,8.3097309 8.585,7.9809338 V 5.1626747 C 8.5850003,3.8005174 7.5506457,2.692 6.2796178,2.692 5.0085914,2.692 3.99177,3.8005174 3.99177,5.1626747 c 0,0.065761 0.052588,0.1221254 0.1139539,0.1221254 0.061361,0 0.1139524,-0.05636 0.1139524,-0.1221254 0,-1.2306403 0.937932,-2.2358205 2.0862403,-2.2358205 1.1483086,0 2.0687062,1.0051802 2.0687062,2.2358205 v 2.8182588 c 0,0.3006163 -0.052588,0.5918354 -0.1665469,0.8642664 0,0 0,0 0,0 -0.052598,0.1315209 -0.1139553,0.2630382 -0.1928457,0.3757681 -0.035061,0.05636 -0.017539,0.1221267 0.026303,0.1597021 0.017539,0.01879 0.043828,0.028191 0.061361,0.028191 z M 5.8500977,6.9287834 c -0.061361,0 -0.1139567,0.05636 -0.1139567,0.1221227 v 0.9394182 c 0,0.3194032 0.2454396,0.5918341 0.5522397,0.5918341 0.061361,0 0.1139568,-0.056371 0.1139568,-0.1221227 0,-0.06576 -0.05259,-0.122124 -0.1139568,-0.122124 -0.1840779,0 -0.3330958,-0.159702 -0.3330958,-0.3569811 V 7.0415142 C 5.9640738,6.9757531 5.911455,6.9287831 5.8500977,6.9287834 Z M 6.2883818,4.5802316 c -0.2980351,0 -0.5522401,0.2630381 -0.5522401,0.5918353 v 1.4091295 c 0,0.06576 0.052588,0.122124 0.1139568,0.122124 0.061361,0 0.1139538,-0.056371 0.1139538,-0.122124 V 5.1626729 c 0,-0.197279 0.1490169,-0.3569803 0.333095,-0.3569803 0.1840812,0 0.333098,0.1597013 0.333098,0.3569803 0,0.06576 0.052588,0.1221253 0.1139524,0.1221253 0.061361,0 0.1139568,-0.05636 0.1139568,-0.1221253 C 6.8406145,4.8432697 6.5864156,4.5802316 6.2883818,4.5802316 Z m 0.4382854,0.9394192 c -0.061361,0 -0.1139524,0.056371 -0.1139524,0.1221267 v 2.3485476 c 0,0.04697 -0.00879,0.09394 -0.026309,0.1409142 -0.026301,0.05636 0,0.1315169 0.061361,0.1503081 0.017539,0.00939 0.026309,0.00939 0.043828,0.00939 0.043828,0 0.07889,-0.028191 0.105191,-0.07515 0.026303,-0.075151 0.043828,-0.150308 0.043828,-0.2254631 V 5.6323896 c 0,-0.065761 -0.052598,-0.1127338 -0.1139538,-0.1127338 z m 0.4382861,1.6439866 c 0.061361,0 0.1139538,-0.05636 0.1139538,-0.1221253 V 5.1626729 c 0,-0.5824413 -0.4382872,-1.0615454 -0.9905258,-1.0615454 -0.5522399,0 -0.990524,0.4697112 -0.990524,1.0615454 v 2.8182588 c 0,0.5824414 0.4382841,1.0615454 0.990524,1.0615454 0.5522386,0 0.9905258,-0.4697103 0.9905258,-1.0615454 v -0.469711 c 0,-0.06576 -0.052588,-0.122124 -0.1139538,-0.122124 -0.061361,0 -0.1139568,0.05636 -0.1139568,0.122124 v 0.469711 c 0,0.4509243 -0.3418599,0.8266923 -0.7713817,0.8266923 -0.4295175,0 -0.7713805,-0.3663751 -0.7713805,-0.8266923 V 5.1626729 c 0,-0.4509232 0.341863,-0.8266913 0.7713806,-0.8266913 0.429522,0 0.771382,0.366374 0.771382,0.8266913 v 1.8788406 c 0.00879,0.065761 0.052598,0.122124 0.1139564,0.1221239 z M 6.2883818,9.5121881 c 0.7889145,0 1.4288112,-0.6857771 1.4288112,-1.5312564 V 6.102091 c 0,-0.06576 -0.052587,-0.1221227 -0.1139553,-0.1221227 -0.061361,0 -0.1139538,0.05636 -0.1139538,0.1221227 v 1.8788407 c 0,0.7139583 -0.5434741,1.2963995 -1.2096678,1.2963995 -0.6661926,0 -1.1921365,-0.5824412 -1.1921365,-1.2963995 0,-0.06576 -0.052588,-0.122124 -0.1139538,-0.122124 -0.061361,0 -0.1139524,0.056371 -0.1139524,0.122124 0.00879,0.8454793 0.6398977,1.5312564 1.4288084,1.5312564 z M 4.9735252,7.6333475 c 0.061361,0 0.1139539,-0.056371 0.1139539,-0.1221254 V 5.1626729 c 0,-0.1784892 0.035061,-0.3475873 0.096421,-0.4978913 0.026303,-0.056371 0,-0.1315209 -0.061361,-0.1503081 -0.052587,-0.028191 -0.122721,0 -0.1402538,0.065761 -0.070118,0.1878862 -0.1139524,0.3851618 -0.1139524,0.5918351 v 2.3485503 c 0,0.05636 0.04383,0.1127311 0.1051882,0.1127311 z M 7.717193,5.1626729 c 0,-0.8454793 -0.6398967,-1.5312566 -1.4288112,-1.5312566 -0.3769249,0 -0.7363179,0.1597021 -1.0080569,0.4509241 -0.04383,0.04697 -0.04383,0.122124 0,0.1690951 0.043828,0.04697 0.1139524,0.04697 0.1577828,0 0.2279099,-0.2442509 0.5347101,-0.375768 0.8502749,-0.375768 0.6661958,0 1.2096675,0.582441 1.2096675,1.2963994 V 5.641778 c 0,0.06576 0.052588,0.1221227 0.1139553,0.1221227 0.061361,0 0.1139539,-0.056371 0.1139539,-0.1221227 V 5.1626729 Z m 0.3243303,1.2963994 c 0.061361,0 0.1139539,-0.05636 0.1139539,-0.1221241 V 5.1626729 c 0,-1.0991233 -0.8327407,-2.0009638 -1.8670952,-2.0009638 -1.034353,0 -1.8583306,0.9018405 -1.8583306,2.0009638 v 1.5312535 c 0,0.06576 0.052588,0.1221254 0.1139568,0.1221254 0.061361,0 0.1139538,-0.05636 0.1139538,-0.1221254 V 5.1626729 c 0,-0.9676023 0.7363166,-1.7661095 1.6479533,-1.7661095 0.9116339,0 1.6304206,0.7985072 1.6304206,1.7661095 v 1.1742752 c 0,0.065761 0.04383,0.1221253 0.1051881,0.1221253 z m 0.1139539,0.3475839 c 0,-0.06576 -0.052588,-0.122124 -0.1139539,-0.122124 -0.061361,0 -0.1139524,0.05636 -0.1139524,0.122124 v 1.1742755 c 0,0.9676033 -0.7363206,1.7661106 -1.6479545,1.7661106 -0.9116328,0 -1.6304205,-0.7985073 -1.6304205,-1.7661106 V 7.1636374 c 0,-0.06576 -0.052588,-0.1221253 -0.1139567,-0.1221253 -0.061361,0 -0.1139539,0.05636 -0.1139539,0.1221253 v 0.8172943 c 0,1.0991234 0.8327437,2.0009648 1.8670966,2.0009648 1.0343545,0 1.8670953,-0.9018414 1.8670953,-2.0009648 z M 4.0969553,5.5196508 C 4.0355943,5.5196508 3.983,5.5760217 3.983,5.6417775 v 2.3485476 c 0,1.3621615 1.0343546,2.4706749 2.3053822,2.4706749 0.6136017,0 1.1921367,-0.253641 1.6304236,-0.7233523 0.04383,-0.04697 0.04383,-0.1221241 0,-0.1690949 -0.043831,-0.04697 -0.1139538,-0.04697 -0.1577828,0 -0.3944576,0.4227395 -0.9204024,0.6575932 -1.4726412,0.6575932 -1.1483087,0 -2.0862375,-1.0051798 -2.0862375,-2.2358203 V 5.6323839 c 0.00881,-0.065761 -0.043828,-0.1127324 -0.105189,-0.1127331 z m 2.305382,-0.3569779 c 0,-0.065761 -0.052588,-0.122124 -0.1139567,-0.122124 -0.061361,0 -0.1139539,0.05636 -0.1139539,0.122124 v 2.8182588 c 0,0.06576 0.052588,0.122124 0.1139539,0.122124 0.061361,0 0.1139567,-0.05636 0.1139567,-0.122124 z" />
    <path
       d="m 6.285478,10.461303 c 1.387709,0 2.299366,-1.0018885 2.299366,-2.3460369 V 5.0380376 C 8.584844,3.6907776 7.673187,2.692 6.285478,2.692 4.894656,2.692 3.983,3.6907776 3.983,5.0380376 v 3.0772285 c 0,1.3441484 0.911656,2.3460369 2.302478,2.3460369 z m 0,-0.8058676 c -0.896099,0 -1.434382,-0.6285133 -1.434382,-1.5401693 V 5.0380376 c 0,-0.9116571 0.538283,-1.5401706 1.434382,-1.5401706 0.8961,0 1.434381,0.6285135 1.434381,1.5401706 v 3.0772285 c 0,0.911656 -0.538281,1.5401693 -1.434381,1.5401693 z"
       id="path982"
       style="display:none;fill:#000000;fill-opacity:1;stroke-width:0.311145"
       inkscape:label="path_o" />
    <path
       d="m 0.14935,10.460711 h 0.5974 c 0.09023,0 0.14935,-0.05912 0.14935,-0.14935 V 5.7250772 h 2.538948 c 0.09023,0 0.14935,-0.062233 0.14935,-0.1493498 V 5.037446 c 0,-0.090233 -0.05912,-0.1493498 -0.14935,-0.1493498 H 0.8961 V 2.5700623 c 0,-0.9863309 0.628515,-1.73308003 1.540171,-1.73308003 h 1.297477 c 0.09023,0 0.14935,-0.0591167 0.14935,-0.14934982 V 0.14934982 C 3.883098,0.05911666 3.823981,0 3.733748,0 H 2.436271 C 1.00189,0 0,1.1201237 0,2.5700623 v 7.7412987 c 0,0.09023 0.05912,0.14935 0.14935,0.14935 z"
       id="path976"
       inkscape:label="path_f"
       style="fill:#000;fill-opacity:1;stroke-width:0;stroke:none;stroke-dasharray:none" />
  </g>
</svg>
